Coordinates
version=1
nRows=27
nColumns=38
inDegrees=no

Units are S.I. units (second, meters, Newtons, ...)
If the header above contains a line with 'inDegrees', this indicates whether rotational values are in degrees (yes) or radians (no).

endheader
time	pelvis_tilt	pelvis_list	pelvis_rotation	pelvis_tx	pelvis_ty	pelvis_tz	hip_flexion_r	hip_adduction_r	hip_rotation_r	knee_angle_r	ankle_angle_r	subtalar_angle_r	mtp_angle_r	hip_flexion_l	hip_adduction_l	hip_rotation_l	knee_angle_l	ankle_angle_l	subtalar_angle_l	mtp_angle_l	lumbar_extension	lumbar_bending	lumbar_rotation	arm_flex_r	arm_add_r	arm_rot_r	elbow_flex_r	pro_sup_r	wrist_flex_r	wrist_dev_r	arm_flex_l	arm_add_l	arm_rot_l	elbow_flex_l	pro_sup_l	wrist_flex_l	wrist_dev_l
2.23	0.150658	1.48412	-1.6383	0.748994	-0.2556	0.905526	0.357269	-0.0735884	-0.168164	0.137856	0.0978904	0	0	-0.407547	0.0594555	-0.033631	0.0193192	0.266789	0	0	-0.246862	-0.0942435	-0.16663	-0.0405581	-0.188199	0.234197	0.442567	0.857676	0	0	0.0160731	-0.451384	0.305284	0.730573	1.20534	0	0
2.24	0.147561	1.48224	-1.63174	0.748361	-0.266557	0.904275	0.351084	-0.0722829	-0.174903	0.157015	0.0970322	0	0	-0.415039	0.0549026	-0.0411836	0.0347529	0.275878	0	0	-0.249583	-0.0926546	-0.17081	-0.0392807	-0.187805	0.238128	0.442739	0.855659	0	0	0.0128886	-0.447987	0.299749	0.728538	1.20926	0	0
2.25	0.113919	1.48081	-1.59564	0.747153	-0.277676	0.903222	0.349028	-0.0616577	-0.192298	0.178824	0.0951741	0	0	-0.420683	0.0465426	-0.0535845	0.0535394	0.286588	0	0	-0.25175	-0.0888904	-0.173589	-0.0377311	-0.186654	0.241723	0.442009	0.8538	0	0	0.00934434	-0.445001	0.294455	0.725875	1.21233	0	0
2.26	0.092308	1.4809	-1.57119	0.746181	-0.288914	0.902157	0.343901	-0.0557651	-0.192614	0.186215	0.081457	0	0	-0.422804	0.039069	-0.0666806	0.0760243	0.29667	0	0	-0.252021	-0.0854938	-0.177116	-0.036225	-0.186085	0.244797	0.441038	0.852247	0	0	0.0054535	-0.441007	0.288999	0.721719	1.21497	0	0
2.27	0.055991	1.48157	-1.53344	0.744916	-0.300227	0.901311	0.337619	-0.0466757	-0.187606	0.185253	0.051761	0	0	-0.422371	0.0300914	-0.0829695	0.102127	0.305589	0	0	-0.251656	-0.0809356	-0.178986	-0.0344096	-0.185416	0.246744	0.439387	0.850705	0	0	0.00176881	-0.436562	0.283655	0.716629	1.21738	0	0
2.28	0.0105945	1.48227	-1.48811	0.743407	-0.311678	0.900685	0.330685	-0.0366578	-0.183029	0.1823	0.0137322	0	0	-0.42009	0.0199861	-0.101625	0.131819	0.312971	0	0	-0.250884	-0.0757955	-0.179046	-0.0328564	-0.184883	0.248527	0.437584	0.849322	0	0	-0.00167127	-0.431906	0.27975	0.71037	1.21981	0	0
2.29	-0.037405	1.4832	-1.44114	0.741744	-0.323244	0.900241	0.326024	-0.027664	-0.182048	0.185619	-0.0210639	0	0	-0.415021	0.00897882	-0.122783	0.166469	0.319234	0	0	-0.24945	-0.07065	-0.178145	-0.0318241	-0.184235	0.250138	0.436135	0.848522	0	0	-0.00528762	-0.427164	0.276385	0.703631	1.22215	0	0
2.3	-0.0990273	1.48591	-1.37973	0.740098	-0.334873	0.899811	0.328491	-0.0201626	-0.186797	0.20159	-0.0462502	0	0	-0.399605	-0.00641829	-0.155388	0.218851	0.331945	0	0	-0.245451	-0.0645869	-0.178007	-0.0308903	-0.182218	0.245385	0.432858	0.860351	0	0	-0.00940718	-0.422611	0.275068	0.696876	1.21515	0	0
2.31	-0.135028	1.48397	-1.3439	0.738816	-0.346919	0.9002	0.327482	-0.0154994	-0.189656	0.22484	-0.0572263	0	0	-0.397546	-0.0172504	-0.165651	0.251688	0.32575	0	0	-0.246053	-0.0592285	-0.178409	-0.0307923	-0.182406	0.247564	0.43305	0.858187	0	0	-0.0145544	-0.417406	0.27297	0.690534	1.21862	0	0
2.32	-0.180186	1.48113	-1.29847	0.737591	-0.358955	0.900967	0.327187	-0.00973309	-0.18917	0.253671	-0.0556517	0	0	-0.390925	-0.0312918	-0.179637	0.294525	0.318586	0	0	-0.247511	-0.0521908	-0.178827	-0.0307537	-0.183126	0.249962	0.43434	0.855968	0	0	-0.0191407	-0.412004	0.272363	0.683817	1.2206	0	0
2.33	-0.233431	1.47766	-1.24514	0.736261	-0.370911	0.902067	0.325788	-0.00188109	-0.185156	0.282114	-0.0462688	0	0	-0.379872	-0.0484024	-0.195269	0.345394	0.307087	0	0	-0.249431	-0.0438963	-0.178881	-0.030506	-0.184106	0.253494	0.435824	0.853985	0	0	-0.0234352	-0.407062	0.273606	0.677463	1.2215	0	0
2.34	-0.296544	1.475	-1.18224	0.73473	-0.382797	0.903257	0.323669	0.0076156	-0.181766	0.306091	-0.0358398	0	0	-0.363694	-0.068425	-0.205558	0.402173	0.289766	0	0	-0.249749	-0.0349341	-0.178644	-0.0303269	-0.185099	0.259279	0.436701	0.852717	0	0	-0.0285794	-0.402457	0.274377	0.672296	1.22178	0	0
2.35	-0.36187	1.47378	-1.11774	0.733065	-0.394658	0.904425	0.320009	0.0175903	-0.179072	0.322516	-0.0279662	0	0	-0.342126	-0.0892396	-0.209538	0.461973	0.262918	0	0	-0.247818	-0.0263279	-0.177748	-0.0307978	-0.186249	0.266295	0.437766	0.850954	0	0	-0.0343401	-0.398241	0.275423	0.66847	1.2225	0	0
2.36	-0.419699	1.47427	-1.06058	0.731482	-0.406395	0.905497	0.314357	0.0265854	-0.176874	0.330972	-0.0226714	0	0	-0.312789	-0.109103	-0.217307	0.52977	0.225812	0	0	-0.243957	-0.0190714	-0.177183	-0.0321253	-0.187706	0.273794	0.439889	0.84817	0	0	-0.0400556	-0.394951	0.27849	0.666083	1.22421	0	0
2.37	-0.486009	1.47751	-0.995222	0.729867	-0.418026	0.906195	0.309002	0.0355627	-0.174547	0.3332	-0.0182964	0	0	-0.276088	-0.128873	-0.223117	0.602239	0.178285	0	0	-0.236401	-0.0127628	-0.176434	-0.0348536	-0.189417	0.282665	0.443141	0.842312	0	0	-0.0463349	-0.392705	0.284813	0.665105	1.22379	0	0
2.38	-0.560734	1.48211	-0.921977	0.72822	-0.42948	0.906578	0.303641	0.0443218	-0.171807	0.331618	-0.0120552	0	0	-0.235289	-0.147465	-0.224627	0.675248	0.122937	0	0	-0.226679	-0.00726273	-0.174911	-0.0387739	-0.191517	0.292669	0.447553	0.831561	0	0	-0.0521706	-0.392021	0.296047	0.66577	1.21957	0	0
2.39	-0.63623	1.48611	-0.848719	0.726584	-0.440707	0.906844	0.297528	0.0525818	-0.167639	0.329366	-0.00290235	0	0	-0.194116	-0.164091	-0.222311	0.745757	0.0648152	0	0	-0.21715	-0.00229332	-0.171949	-0.0436921	-0.196293	0.311696	0.455738	0.802476	0	0	-0.0568015	-0.39643	0.327442	0.672874	1.16464	0	0
2.4	-0.718143	1.48804	-0.769327	0.725086	-0.45187	0.907134	0.290674	0.0614605	-0.163091	0.328111	0.00674952	0	0	-0.151781	-0.181028	-0.226575	0.818752	0.00497007	0	0	-0.208864	0.00420136	-0.16841	-0.0489099	-0.201332	0.324745	0.464703	0.779638	0	0	-0.0609917	-0.394201	0.332825	0.673478	1.18132	0	0
2.41	-0.795556	1.4878	-0.693554	0.723744	-0.462904	0.907667	0.283179	0.0705064	-0.159475	0.329063	0.0162525	0	0	-0.110816	-0.1978	-0.221886	0.885413	-0.0600364	0	0	-0.202479	0.01165	-0.164501	-0.0546018	-0.203923	0.320182	0.471695	0.783244	0	0	-0.063087	-0.392994	0.343441	0.674538	1.18797	0	0
2.42	-0.82399	1.4852	-0.666982	0.722555	-0.47373	0.908818	0.271548	0.0781207	-0.154757	0.331293	0.0258911	0	0	-0.0777431	-0.210109	-0.199869	0.938718	-0.125253	0	0	-0.201367	0.0178641	-0.160703	-0.0587803	-0.207387	0.319818	0.478722	0.779112	0	0	-0.0640483	-0.392081	0.354758	0.676512	1.17816	0	0
2.43	-0.831721	1.48162	-0.662486	0.721499	-0.484443	0.910165	0.258412	0.0849869	-0.149783	0.334922	0.0369558	0	0	-0.0416169	-0.224598	-0.211784	1.003	-0.19216	0	0	-0.202759	0.0236193	-0.155146	-0.0633998	-0.209899	0.306793	0.48598	0.792562	0	0	-0.0642713	-0.387627	0.353763	0.675016	1.2089	0	0
2.44	-0.806534	1.47905	-0.690996	0.720398	-0.49457	0.911913	0.242797	0.0891625	-0.14315	0.335535	0.0454495	0	0	-0.0144484	-0.230273	-0.184036	1.04476	-0.243604	0	0	-0.207323	0.0257129	-0.15009	-0.0656863	-0.21411	0.308972	0.49416	0.780407	0	0	-0.0634913	-0.386814	0.362394	0.67869	1.19354	0	0
2.45	-0.767853	1.47516	-0.735291	0.719239	-0.505021	0.913803	0.222396	0.0936566	-0.136466	0.331586	0.0525848	0	0	0.0132081	-0.239726	-0.20019	1.0961	-0.28688	0	0	-0.213145	0.0271686	-0.143034	-0.0680664	-0.218165	0.30469	0.501017	0.782467	0	0	-0.0637576	-0.383895	0.363283	0.680577	1.2	0	0
2.46	-0.731191	1.47327	-0.777499	0.718018	-0.515208	0.91567	0.202025	0.0965612	-0.12924	0.324294	0.0580101	0	0	0.0379805	-0.243651	-0.197669	1.13508	-0.296184	0	0	-0.21772	0.026254	-0.136444	-0.0701963	-0.221315	0.298882	0.507477	0.785989	0	0	-0.0639111	-0.381692	0.364098	0.68242	1.20894	0	0
2.47	-0.695737	1.47375	-0.818655	0.716854	-0.525167	0.917453	0.183629	0.0974034	-0.121861	0.316235	0.0618823	0	0	0.0651742	-0.244378	-0.194216	1.17523	-0.269073	0	0	-0.220601	0.0231571	-0.129811	-0.0715658	-0.22125	0.279508	0.509444	0.816556	0	0	-0.0637271	-0.377951	0.358082	0.681675	1.24303	0	0
2.48	-0.64447	1.47605	-0.875791	0.715759	-0.534889	0.919262	0.166772	0.0950649	-0.114517	0.309334	0.0656629	0	0	0.0934958	-0.241317	-0.189587	1.21574	-0.221516	0	0	-0.222741	0.0171373	-0.123794	-0.0712627	-0.22294	0.276198	0.509994	0.821218	0	0	-0.0633229	-0.376648	0.36048	0.683511	1.24363	0	0
2.49	-0.583342	1.47913	-0.9428	0.714672	-0.544544	0.921109	0.150573	0.0911521	-0.107248	0.302726	0.0696559	0	0	0.121672	-0.236502	-0.185511	1.25153	-0.172944	0	0	-0.223883	0.00951498	-0.118199	-0.0701627	-0.22366	0.274547	0.507702	0.825129	0	0	-0.0629872	-0.375974	0.364293	0.68536	1.23781	0	0
